<?xml version="1.0" encoding="UTF-8"?>
<svg id="Layer_2" xmlns="http://www.w3.org/2000/svg" viewBox="0 0 169.55 174.23">
  <defs>
    <style>
      .cls-1 {
        fill: #e28043;
      }

      .cls-2 {
        fill: #343233;
      }
    </style>
  </defs>
  <g id="Layer_1-2" data-name="Layer_1">
    <path class="cls-2" d="M122.32,153.55c-.29.07-.58.15-1.11.28,4.19,6.02,8.3,11.91,12.41,17.8-1.26.81-3,.48-3.8-.69-3.19-4.61-6.55-9.11-9.5-13.86-1.29-2.08-3.02-3.71-4.38-5.68-1.34-1.94-1.37-2.72,0-4.77-1.39-1.83-2.81-3.69-4.07-5.36-3.03,1.35-5.78,2.71-8.62,3.82-7.89,3.1-16.1,4.82-24.54,5.31-5.95.34-11.85-.27-17.69-1.38-10.95-2.09-20.81-6.65-29.69-13.32-12.73-9.55-22.16-21.59-27.45-36.7C.95,90.7-.32,82.12.07,73.38c.8-18.3,7.37-34.35,19.62-48C29.96,13.93,42.54,6.13,57.51,2.44c16.57-4.09,32.9-3.19,48.52,3.87,17.95,8.11,31.12,21.18,38.91,39.41,3.03,7.1,4.95,14.52,5.7,22.19,1.38,14.02-.6,27.48-7.09,40.13-3.36,6.56-7.44,12.61-12.4,18.07-.26.29-.51.59-.84.96,1.65,2.01,3.3,4.01,4.95,6.02.48-.27.83-.51,1.22-.68,1.21-.52,2.37-.2,3.43,1.17.65.84,1.02,1.9,1.54,2.85.44.82.79,1.72,1.37,2.44,4.69,5.87,9.45,11.7,14.15,17.56,4.02,5.02,8.01,10.07,11.98,15.14.39.5.67,1.26.61,1.86-.03.33-.9.82-1.36.8-.53-.03-1.16-.45-1.51-.89-3.34-4.17-6.64-8.37-9.93-12.59-4.77-6.12-9.52-12.26-14.28-18.38-.55-.7-1.16-1.36-1.87-2.2-.65.74-1.25,1.42-1.85,2.1-.31.31-.62.61-.94.92-.26.24-.53.48-.79.72-.44.38-.88.75-1.32,1.13-.1.24-.21.47-.31.71-.22.08-.46.12-.64.25-2.58,1.69-5.11,3.45-7.73,5.08-1.49.93-3.12,1.65-4.69,2.46ZM119.29,145.81c-1.56-2.29-3.13-4.58-4.69-6.88-.42.24-.67.38-1.13.65,1.62,2.04,3.17,4.01,4.73,5.97.29.37.6.8,1.1.24-.24.9-.49,1.8-.73,2.7-.31.1-.62.2-1.02.32.74.81,1.37,1.54,2.06,2.2.18.17.55.13.84.18.63-.38,1.25-.78,1.9-1.13,1.52-.83,3.09-1.57,4.54-2.5.58-.37.9-1.15,1.34-1.75,1.14-.56,2.4-.95,3.39-1.7,2.33-1.78,4.55-3.7,6.77-5.62.66-.57.67-1.35.24-2.12-.37-.68-.77-1.29-1.7-1.06-1.29-.95-1.98.33-2.85.85-.21-.36-.37-.64-.53-.92-1.05-1.43-2.07-2.88-3.19-4.25-.19-.24-1.04-.3-1.25-.1-.81.77-1.6,1.63-2.19,2.57-.52.82-.85,1.79-1.12,2.73-.17.6-.3,1.47,0,1.88.31.42,1.17.54,1.81.58.59.04,1.19-.21,1.79-.34.48,1.02-.17,1.63-.87,2.13-2.2,1.55-4.45,3.03-6.64,4.59-.8.57-1.6.92-2.59.76ZM75.25,146.02c6.55.02,14.52-.94,22.43-3.76,3.75-1.34,7.41-2.97,11.01-4.67,6.12-2.89,11.53-6.86,16.4-11.54,3.83-3.68,7.23-7.73,10.16-12.18,6.8-10.33,10.98-21.52,11.44-33.98.4-10.67-1.1-21.03-5.03-31-6.71-17.06-18.77-29.21-34.87-37.46-11.53-5.91-23.91-7.72-36.79-6.68-8.5.69-16.58,2.78-24.26,6.42-11.55,5.48-21.05,13.43-28.4,23.9-10.22,14.56-14.34,30.72-12.62,48.39.68,7.03,2.59,13.74,5.54,20.15,4.96,10.79,12.3,19.72,21.61,27.02,12.72,9.96,27.14,15.24,43.37,15.38Z"/>
    <path class="cls-1" d="M99.12,161.68c-7.16,1.33-14.32,2.65-21.49,3.98-.02-.09-.03-.17-.05-.26,5.46-1.37,10.92-2.73,16.51-4.13-1.51-.82-2.77-.07-4.06.16-5.93,1.04-11.84,2.13-17.78,3.12-1.18.2-2.42.03-3.63.03.01.15.02.29.03.44,1.65-.46,3.29-.96,4.95-1.38,1.73-.44,3.48-.78,5.22-1.19,1.75-.41,3.49-.86,5.23-1.29,0-.09-.02-.19-.03-.28-.56,0-1.14-.08-1.69.01-5.25.92-10.49,1.89-15.73,2.81-1.89.33-3.8.58-5.71.84-.19.03-.41-.14-.82-.29,4-.95,7.74-1.98,11.52-2.89-.06-.22-.11-.44-.17-.66-5.25.87-10.51,1.74-15.77,2.6-.01-.09-.03-.18-.04-.27,3.09-.85,6.18-1.69,9.27-2.54-.03-.14-.05-.27-.08-.41-4.4.14-8.65,1.77-13.05,1.42,2.72-.72,5.49-1.45,8.27-2.18-.01-.1-.03-.19-.04-.29-4.26-.1-8.39,1.3-12.69,1.46.04-.14.03-.11.02-.09,1.6-.52,3.2-1.05,5.09-1.66-2.55-.72-4.84.43-7.26.06.42-1.3,1.82-.65,2.61-1.59-4.36,0-8.5.28-12.62.99-.01-.11-.02-.23-.03-.34,1.24-.16,2.48-.31,3.45-.43,1.48-.48,2.74-.88,4.01-1.29-4.54-.37-8.95.78-13.46.78,2.69-.63,5.37-1.27,8.06-1.9-.02-.15-.04-.3-.05-.44-3.23.3-6.46.61-9.68.91-.02-.08-.03-.16-.05-.25l7.2-1.77c-.02-.12-.04-.24-.06-.36-2.7.16-5.41.31-7.11.41,2.09-.71,5.23-1,8.46-.93,3.26.06,6.52-.18,9.78-.16,8.16.06,16.32.15,24.47.33,6.67.15,13.34.45,20,.7.76.03,1.51.18,2.31.28-.25.16-.43.27-.87.55h5.04c.02.1.03.21.05.31-.31.12-.61.24-.92.36v.22c2.34-.11,4.68-.22,7.01-.33-1.19.55-2.51.51-3.47,1.37.05.18.09.35.14.53,3.23-.33,6.45-.67,9.68-1,0,.07,0,.14.01.21-2.38.73-4.76,1.46-7.14,2.19.02.09.03.19.05.28,1.3-.15,2.6-.29,3.9-.47,1.46-.2,2.91-.49,4.38-.65.37-.04.79.27,1.18.41v.3c-1.13.38-2.25.77-3.37,1.15.02.11.05.23.07.34,1.31-.15,2.61-.32,3.92-.45,1.21-.12,2.43-1.03,3.66.15-10.58,3.77-21.63,5.41-32.61,7.37,5.37-1.47,10.74-2.94,16.11-4.41-.04-.16-.08-.33-.13-.49Z"/>
    <path class="cls-2" d="M135.69,145.05c.44-.38.88-.75,1.32-1.13,2.67,3.6,5.3,7.22,8.03,10.78,3.24,4.23,6.56,8.41,9.84,12.61.28.36.54.75.85,1.19-1.4,1.48-3.21,1.96-5.03,2.36-4.85,1.08-9.78,1.2-14.73,1.15-.4,0-.96-.22-1.17-.52-4.18-5.96-8.33-11.95-12.48-17.94,1.57-.81,3.19-1.54,4.69-2.46,2.62-1.63,5.16-3.39,7.73-5.08.19-.12.43-.17.64-.25,3.24,4.4,6.49,8.79,9.73,13.19.09-.06.19-.12.28-.18-.19-.38-.34-.79-.58-1.14-2.12-3.02-4.23-6.03-6.38-9.02-.87-1.22-1.82-2.38-2.74-3.56Z"/>
    <path class="cls-2" d="M137.8,143.2c.31-.31.62-.61.94-.92,5.94,8.07,11.88,16.13,17.81,24.21.57.78.32,1.18-.86,1.45-2.66-3.65-5.32-7.29-7.96-10.95-3.32-4.59-6.62-9.2-9.92-13.8Z"/>
    <path class="cls-1" d="M88.84,167.63c2.21-.56,4.42-1.11,6.62-1.68,3.97-1.03,7.94-2.08,11.91-3.12,3.06-.8,6.12-1.62,9.19-2.35.36-.09,1.06.16,1.22.45.39.75-.32.93-.85,1.05-7.72,1.75-15.44,3.49-23.16,5.21-1.28.29-2.56.54-3.85.77-.33.06-.68,0-1.02,0-.02-.11-.04-.23-.05-.34Z"/>
    <path class="cls-1" d="M99.3,170.34c4.19-1.13,8.36-2.28,12.56-3.38,3.32-.87,6.65-1.69,9.99-2.5.65-.16,1.48-.52,1.8.42.05.14-.87.77-1.41.89-4.82,1.09-9.66,2.12-14.49,3.18-1.85.4-3.69.86-5.54,1.22-.95.18-1.93.21-2.9.31,0-.05,0-.09-.01-.14Z"/>
    <path class="cls-1" d="M95.87,168.53c1.1-.28,2.21-.55,3.31-.83,3.29-.85,6.56-1.75,9.86-2.56,3.55-.86,7.12-1.64,10.68-2.45.65-.15,1.29-.38,1.94-.44.33-.03.69.26,1,.58-8.7,3.15-17.85,3.87-26.68,6.08-.04-.13-.07-.25-.11-.38Z"/>
    <path class="cls-1" d="M107.86,170.84c.83-.24,1.66-.5,2.49-.72,4.61-1.21,9.22-2.42,13.84-3.62.63-.17,1.19-.18,1.24,1.05-5.8,1.2-11.64,2.4-17.49,3.61-.03-.1-.05-.21-.08-.31Z"/>
    <path class="cls-1" d="M115.06,171.61c.45-.32.61-.51.81-.56,3.29-.84,6.58-1.69,9.89-2.47.34-.08.78.24,1.17.37-.28.25-.54.66-.86.72-2.17.39-4.36.69-6.53,1.05-1.38.23-2.75.54-4.47.88Z"/>
    <path class="cls-1" d="M128.09,171.55h-4.65c2.65-1.14,3.78-1.18,4.65,0Z"/>
    <path class="cls-2" d="M128.22,145.84c-.44.59-.76,1.37-1.34,1.75-1.45.93-3.03,1.67-4.54,2.5-.64.35-1.26.75-1.9,1.13-.48-.7-.95-1.41-1.44-2.11-.14-.2-.29-.4-.44-.6.24-.9.49-1.8.73-2.7h0c.98.16,1.78-.18,2.59-.75,2.19-1.57,4.44-3.04,6.64-4.59.7-.5,1.35-1.1.87-2.13,1.68-.63,3.05-1.68,4.16-3.07.16.28.33.57.53.92.87-.52,1.56-1.8,2.85-.84-2.68,2.39-5.36,4.78-8.04,7.18-.54.49-1.19.9-1.59,1.49-.71,1.04-.32,1.7.93,1.84Z"/>
    <path class="cls-2" d="M6.7,75.87c.55-16.73,5.74-31.09,15.86-43.58,7.83-9.66,17.76-16.48,29.3-21.02.43-.17.92-.4,1.34-.34.55.08,1.46.35,1.51.66.09.51-.24,1.31-.66,1.63-.75.58-1.7.92-2.59,1.3-13.12,5.71-23.7,14.42-31.34,26.56-3.84,6.1-6.5,12.71-8.23,19.71-4.13,16.7-1.48,32.36,7.31,47,2.13,3.55,4.86,6.75,7.32,10.11.53.72,1.49,1.38.59,2.38-.63.7-1.77.41-2.74-.62-4.03-4.29-7.33-9.09-10.05-14.29-3.52-6.75-5.99-13.85-6.96-21.41-.37-2.89-.49-5.82-.67-8.07Z"/>
    <path class="cls-2" d="M139.06,74.17c-.09,9.97-2.48,19.38-6.9,28.31-3.68,7.44-8.8,13.74-15.03,19.18-.63.55-1.3.84-1.94.13-.67-.74-.21-1.32.41-1.87,6.41-5.63,11.55-12.23,15.2-19.95,2.96-6.27,4.85-12.88,5.58-19.78,1.21-11.36-.7-22.23-5.8-32.43-5.27-10.54-12.95-19.02-22.93-25.35-6.37-4.04-13.37-6.46-20.78-7.71-2.61-.44-5.26-.67-7.89-.92-.71-.07-1.29-.16-1.28-.97,0-.85.53-1.3,1.37-1.24,2.29.17,4.6.27,6.88.6,10.45,1.48,19.89,5.43,28.21,11.92,7.04,5.49,12.66,12.23,17.09,19.97,2.24,3.92,4.05,8.03,5.27,12.37,1.63,5.79,2.71,11.67,2.55,17.74Z"/>
    <path class="cls-2" d="M139.65,99.47c-.04.48.05,1.02-.14,1.44-4.73,10.65-11.41,19.87-20.58,27.12-8.31,6.57-17.78,10.79-28.05,13.37-11.13,2.8-22.18,2.32-33.23-.33-.3-.07-.7-.12-.86-.32-.39-.51-.98-1.15-.92-1.67.1-.85.93-1,1.76-.86,3.53.6,7.05,1.33,10.6,1.76,7.67.92,15.24.31,22.72-1.67,12.84-3.4,24.04-9.63,33.23-19.26,5.23-5.48,9.45-11.68,12.62-18.58.16-.35.38-.66.58-.99.75.75,1.51.35,2.26,0Z"/>
    <path class="cls-2" d="M12.14,75.1c.51-11.67,3.63-22.55,9.93-32.44,6.57-10.31,15.18-18.41,26.13-23.95,8.12-4.12,16.68-6.68,25.82-7.08.16,0,.31,0,.47-.02.85-.07,1.37.33,1.44,1.16.08.88-.55,1.1-1.28,1.17-2.1.21-4.2.35-6.29.66-8.69,1.28-16.64,4.54-24.06,9.16-8.84,5.5-15.74,12.89-21.1,21.76-5.3,8.77-8.1,18.3-8.68,28.5-.05.85-.01,1.71-.07,2.56-.05.7-.25,1.34-1.15,1.31-.89-.03-1.22-.55-1.17-1.39.03-.47,0-.94,0-1.4Z"/>
    <path class="cls-2" d="M101,22.7c.68.31,1.21.53,1.73.79,8.41,4.15,15.08,10.32,20.47,17.9,1.93,2.72,3.53,5.68,5.23,8.56.36.61.96,1.45-.15,1.96-.97.45-1.36-.28-1.75-1.02-3.97-7.64-9.38-14.12-15.92-19.69-3.04-2.59-6.29-4.84-9.81-6.73-.32-.17-.52-.75-.57-1.17-.02-.17.49-.41.76-.61Z"/>
    <path class="cls-2" d="M24.68,108.47c.64.62,1.06.91,1.32,1.3,4.52,6.78,10.22,12.35,17.11,16.71.75.48,1.55.89,2.33,1.32.66.36,1.25.76.83,1.63-.44.92-1.21.81-1.88.39-2.21-1.38-4.46-2.72-6.55-4.28-5.23-3.91-9.67-8.58-13.26-14.05-.28-.42-.67-.89-.67-1.33,0-.48.4-.96.76-1.7Z"/>
    <path class="cls-2" d="M80.96,137.4c-.35-.4-.88-.76-1.01-1.22-.24-.91.45-1.24,1.22-1.32,4.22-.4,8.26-1.54,12.24-2.89,2.17-.73,4.27-1.67,6.4-2.52.36-.14.71-.33,1.08-.43.64-.17,1.29-.16,1.56.59.26.72-.14,1.17-.77,1.48-6.32,3.17-12.98,5.22-20,6.05-.15.02-.31.02-.47.03-.09.07-.17.15-.26.22Z"/>
    <path class="cls-2" d="M19.8,100.62c.28.34.58.66.82,1.03,1,1.55,2,3.09,2.95,4.67.17.28.04.73.05,1.11-.45-.04-1.09.08-1.31-.17-.55-.63-.95-1.41-1.35-2.16-.51-.96-.99-1.94-1.41-2.94-.17-.41-.15-.91-.21-1.37.15-.06.31-.11.46-.17Z"/>
    <path class="cls-2" d="M19.71,94.44c1.88-.41,2-1.81,2.33-3.18.94,1,.6,2.88,2.61,3.11-1.96.34-1.97,1.83-2.24,3.53-1.02-1.32-.45-3.39-2.7-3.46Z"/>
    <path class="cls-2" d="M143.41,76.41c.16.33.46.67.46,1-.04,2.48-.12,4.95-.23,7.43-.02.5-.04,1.26-.86.99-.22-.07-.34-.79-.31-1.21.14-2.24.34-4.47.52-6.7.04-.48.06-.96.09-1.44.11-.02.22-.05.34-.07Z"/>
    <path class="cls-2" d="M21.78,56.81c.17,1.82-1.48,7.38-2.28,7.7-.48-1.58,1.15-7.08,2.28-7.7Z"/>
    <path class="cls-2" d="M39.29,34.29c.39,1.06.24,2.38,1.86,2.42-.6.58-1.15.92-1.4,1.42-.26.51-.22,1.16-.32,1.75-.12.02-.23.03-.35.05-.14-.31-.35-.61-.42-.94-.16-.72.02-1.63-1.15-1.68-.03,0-.03-.58-.04-.89,1.15,0,1.13-.92,1.34-1.67.04-.14.24-.24.47-.46Z"/>
    <path class="cls-2" d="M129.5,93.36c-.28.1-.7.26-1.2.44-.02.08-.02.24-.08.36-.18.37-.39.73-.59,1.09-.27-.31-.54-.63-.81-.94-.2-.23-.37-.51-.62-.68-.29-.2-.64-.32-.98-.62.84-.35,1.8-.46,1.86-1.58.26.02.61-.06.76.08.56.53,1.04,1.14,1.66,1.83Z"/>
    <path class="cls-2" d="M136.86,44.51c.84,1.93,1.62,3.72,2.4,5.52-.13.11-.27.22-.4.34-.27-.25-.62-.44-.78-.75-1.69-3.18-1.98-4.19-1.21-5.11Z"/>
    <path class="cls-2" d="M143,59.92c-.38.5-.59.98-.94,1.13-.19.09-.63-.36-.95-.58-.06-.04-.08-.13-.12-.2-.43-.75-.68-1.52-.05-2.26.12-.14.61-.21.68-.12.48.61.89,1.28,1.38,2.02Z"/>
    <path class="cls-2" d="M138.04,98.05c.15-.43.26-.89.47-1.29.3-.57.73-1.05,1.48-.72.78.34.77,1,.54,1.66-.11.31-.39.55-.6.82-.63-.16-1.26-.31-1.88-.47Z"/>
    <path class="cls-2" d="M96.89,20.85c.71.33,1.33.51,1.79.87.21.17.19.72.14,1.08-.02.1-.57.22-.83.15-.48-.13-.95-.33-1.36-.61-.27-.18-.66-.64-.59-.77.16-.31.56-.49.85-.73Z"/>
    <path class="cls-2" d="M63.22,8.96c1.39-.27,2.78-.53,4.25-.81-.14,1.25-2.76,1.83-4.19,1.21-.02-.13-.04-.27-.07-.4Z"/>
    <path class="cls-2" d="M143.43,89.9c-.59.47-.97.98-1.32.97-.3-.01-.86-.68-.81-.97.08-.45.58-.82.91-1.22.34.33.67.67,1.23,1.22Z"/>
    <path class="cls-2" d="M57.95,9.16c.49.54,1.1,1.04,1.03,1.15-.25.44-.68.96-1.12,1.04-.31.06-.75-.54-1.13-.84.34-.38.69-.76,1.21-1.35Z"/>
    <path class="cls-2" d="M48.86,136.02c-.63.38-1,.73-1.14.66-.59-.33-1.11-.78-1.66-1.18.25-.19.58-.58.75-.52.61.21,1.16.57,2.05,1.05Z"/>
    <path class="cls-2" d="M138.04,98.05c.63.16,1.26.31,1.88.47-.09.32-.19.63-.28.95-.75.34-1.51.75-2.26,0,.22-.47.44-.95.66-1.42Z"/>
    <path class="cls-2" d="M142.22,93.57c-.67.5-1.03.95-1.45,1.01-.24.03-.85-.65-.79-.88.1-.41.54-.86.95-1,.23-.08.66.43,1.29.88Z"/>
    <path class="cls-2" d="M135.04,43.67c-.29-.48-.63-.95-.85-1.46-.04-.1.33-.39.51-.59.36.39.77.75,1.04,1.2.09.15-.2.52-.31.8-.13.02-.26.04-.39.06Z"/>
    <path class="cls-1" d="M58.57,117.3c-2.82,2.15-4.72,2.51-6.8,1.12-2.4-1.61-2.78-3.92-2.08-6.26-2.6-2.39-5.12-4.65-7.58-6.98-.79-.75-1.39-1.69-2.14-2.5-.21-.23-.64-.41-.93-.37-2.3.35-4.1-.41-5.07-2.2-1.06-1.96-.73-4.21.78-5.92.24-.27.44-.86.31-1.13-1.87-3.86-3.37-7.84-3.93-12.16-2.23.09-3.82-.83-4.49-2.89-.91-2.83.21-5.65,3.27-6.54.96-.28,1.34-.75,1.53-1.67.72-3.41,2-6.62,3.56-9.73.3-.6.57-1.22.88-1.87-1.48-.74-2.27-1.9-2.57-3.53-.51-2.81,2.84-6.1,5.79-5.11.8.27,1.18.04,1.66-.56,2.7-3.4,5.81-6.38,9.51-8.82-.49-1.43-1.01-2.85-.24-4.34.54-1.05,1.21-1.97,2.25-2.57,1.88-1.09,4.17-.65,5.97.96,4.17-1.43,8.2-2.8,12.43-4.25-.1-1.6.2-3.49,2.08-4.5.98-.53,2.21-.94,3.29-.88,2.88.18,4.23,2.14,4.17,5.67,4.28.96,8.44,2.28,12.31,4.4,3.07-2.41,5.68-2.64,7.82-.71,1.91,1.72,2.2,4.09.73,6.34,3.65,2.47,6.68,5.59,9.44,8.99.17.2.59.36.84.31,2.66-.54,4.45.24,5.58,2.49.99,1.98.42,4.25-1.41,5.81,1.3,3.61,2.59,7.18,3.81,10.57-.99.35-1.73.61-2.55.89-1.1-2.97-2.16-6.19-4.12-9.1-.83,2.09-1.63,4.04-2.36,6.02-.1.27.08.67.19.99.78,2.06,1.57,4.11,2.41,6.29,2.62.5,3.6-.33,4.39-2.2,1.22.58,1.94.24,2.14-.73.47.25.98.68,1.55.8,2.32.49,3.94,2.7,3.7,5.19-.25,2.58-2.05,4.29-4.51,4.3-.1,0-.2.02-.38.04-.75,4.45-2.21,8.66-4.42,12.67.35.4.78.78,1.09,1.23,1.22,1.8,1.14,3.7.09,5.51-1.03,1.77-2.74,2.19-4.69,1.99-.33-.03-.85.1-1.02.34-2.52,3.52-5.45,6.6-9.1,8.94,1.15,3.42-.29,5.78-1.9,6.69-2,1.12-4.46,1.68-7.15-1.4-3.89,1.98-7.96,3.57-12.35,4.16-.74,3.75-2.38,5.3-5.38,5.07-2.45-.19-3.99-2.01-4.2-5.04-4.27-.6-8.35-1.85-12.22-3.82ZM110.52,98.01l-.02.05s.04-.02.04-.02c.19-.11.4-.33.55-.3.33.08.62.33.95.43,1.29.42,2.47-.03,2.86-1.07.43-1.13-.18-2.4-1.4-2.94-2.09-.92-3.88.51-3.88,3.04,0,.71.21.98.9.81ZM74.94,65.96c-5.18-.53-10.23,4.57-10.03,10.28.09,2.58.79,4.91,2.69,6.72,2.22,2.11,4.71,3.29,7.99,3.33,5.48.06,10.55-4.59,10.48-10.3-.06-5.13-4.11-10.39-11.13-10.02ZM73.31,34.11c-.09.09-.18.18-.28.27-.42-.57-.81-1.15-1.26-1.69-.14-.17-.47-.32-.68-.28-3.71.67-7.3,1.7-10.71,3.32-.74.35-1.04.72-.36,1.19-.62,1.71-1.21,3.32-1.79,4.91.55.08,1.15.18,1.76.27l.21.39c-.74.64-1.56,1.21-2.2,1.94-.28.32-.18.96-.25,1.45.41-.09.91-.05,1.2-.28,3.87-2.99,8.45-4.4,13.04-5.72,1.25-.36,1.39-.87,1.09-1.96-3.12-.55-6.27-1.11-9.42-1.67,3.15-1.25,6.28-1.28,9.48-.28.06-.69.12-1.28.17-1.86ZM37.53,73.53c1.31.48,1.37-.61,1.59-1.29.75-2.28,2.02-4.25,3.42-6.18,2.96-4.11,7.05-7.26,9.71-11.62.34-.56.57-1.2.85-1.8-.11-.07-.23-.15-.34-.22-1.04.77-2.06,1.57-3.12,2.32-1.59,1.12-3.13,2.34-4.83,3.23-.85.44-1.5.89-2.05,1.65-3.04,4.14-4.86,8.73-5.22,13.92ZM58.77,53.53c.71.93,1.64,1.72,1.96,2.7.38,1.16,1.19,1.29,2.02,1.38.92.1,1.81.11,2.39-1.08,1.22-2.47,3.32-3.96,6.02-4.63,1.85-.46,1.82-.49,1.94-2.41.04-.65-.2-.84-.78-.76-1.47.21-2.96.32-4.41.64-3.38.74-6.53,2.04-9.16,4.15ZM72.97,100.1c-3.02-.34-5.72-1.39-7.27-3.91-1.07-1.74-2.2-1.65-3.7-1.22-.07.02-.15.03-.2.07-.2.2-.48.37-.57.61-.41,1.11-.76,2.24-1.17,3.45,3.7,2.86,8.2,3.77,12.91,4.41v-3.41ZM79.03,39.55c.29.12.43.18.58.24,2.73,1.14,5.57,2.09,8.14,3.51,1.71.94,3.28,1.81,5.28,1.55.27-.04.54-.09,1.09-.18-.61-.55-1-.89-1.38-1.24-.41-.38-.82-.78-1.23-1.17.51-.17,1.02-.35,1.53-.53.05-.02.07-.09-.01.02-.53-1.37-1.01-2.64-1.51-3.94-3.61-.52-10.86.43-12.5,1.75ZM112.63,92.11c.25-.3.35-.39.43-.51,2.1-3.21,3.17-6.82,3.99-10.52.05-.22.04-.54-.08-.7-.95-1.2-1.97-2.33-3.75-1.76-.24.08-.52.3-.62.52-.69,1.5-1.35,3.01-2.01,4.53-.08.18-.17.42-.13.59.69,2.55,1.41,5.1,2.17,7.83ZM100.37,96.66h7.55c.14-2.11,1.28-3.47,3.02-4.37-.68-1.97-1.33-3.86-2.02-5.87-2,3.43-4.69,6.06-7.66,8.45-.43.35-.55,1.08-.89,1.79ZM100.65,56.55c-.07.14-.14.28-.21.42.26.46.4,1.1.79,1.34,2.29,1.42,4.2,3.23,5.92,5.27.44.53.92,1.03,1.52,1.7.87-2.31,1.66-4.41,2.42-6.44-.61-.43-1.23-.68-1.54-1.14-.78-1.15-1.79-1.45-3.08-1.16-.14.03-.28,0-.42,0-1.8,0-3.6,0-5.4,0ZM50.52,96.85l.33-.17c-.25-.51-.37-1.25-.78-1.51-2.61-1.64-4.51-3.98-6.33-6.37-2.12-2.78-3.83-5.79-4.69-9.21-.19-.76-.54-1.1-1.33-.82-.77,7.68,5.8,15.32,12.8,18.07ZM79.85,112.36c.61.15,1.15.24,1.67.41,3.04,1,6.2,1.01,9.35,1.11.58.02.97-.19,1.22-.89.35-.98.93-1.89,1.55-2.74.42-.58.55-1.01.1-1.54-1.42.14-2.79.29-4.17.41-.8.07-1.68-.09-2.4.19-2.43.93-4.81,2-7.3,3.05ZM74.94,34.07v29.73h1.34v-29.73h-1.34ZM50.83,60.43c-2.03,2-4.09,3.99-6.09,6.03-.23.23-.32.81-.2,1.14.67,1.94,1.4,3.85,2.15,5.76.07.18.34.38.51.38.15,0,.36-.24.45-.42.12-.25.15-.54.22-.82.75-2.85,1.59-5.66,3.21-8.16.81-1.26,1.39-2.41.1-3.68-.02-.02-.06-.04-.35-.24ZM55.82,98.96c2.02-.02,3.74-1.72,3.74-3.71,0-2.05-1.55-3.53-3.7-3.53-2.08,0-3.71,1.6-3.66,3.59.06,2.14,1.57,3.67,3.61,3.66ZM100.34,61.2c-1.02.64-1.03,1.21-.67,1.97,1.59,3.35,3.05,6.74,3.62,10.48h1.07c.72-1.82,1.32-3.59,2.12-5.27.48-1.01.27-1.68-.47-2.32-1.89-1.64-3.8-3.25-5.68-4.86ZM98.74,95.27c.07-1.61-1.04-3.58-3.56-3.57-2.28.01-3.62,1.77-3.64,3.47-.03,2.01,1.65,3.74,3.59,3.74,2.09,0,3.6-1.53,3.61-3.64ZM99.62,91.49c.12.06.23.13.35.19,2.85-2.05,5.38-4.41,7.03-7.58.13-.24-.04-.71-.19-1.01-.65-1.31-1.34-2.62-2.05-3.9-.15-.28-.47-.46-.71-.69-.22.25-.59.48-.64.77-.67,3.6-1.97,6.99-3.36,10.35-.24.58-.3,1.24-.44,1.86ZM59.59,58.36c0-1.93-1.63-3.63-3.51-3.66-1.92-.03-3.66,1.7-3.69,3.66-.02,1.88,1.8,3.68,3.7,3.66,1.9-.02,3.5-1.69,3.49-3.67ZM98.74,58.1c-.02-1.73-1.24-3.41-3.56-3.36-2.02.04-3.63,1.67-3.62,3.67.01,1.86,1.71,3.53,3.56,3.51,1.99-.02,3.64-1.76,3.62-3.82ZM58.3,50.9c1.37-.67,2.69-1.35,4.03-1.95,3.14-1.4,6.47-1.96,9.87-2.24.28-.02.54-.3.81-.45-.23-.17-.44-.43-.7-.5-1.81-.45-3.63-.91-5.46-1.28-1.02-.21-2.06-.46-3.05.28-1.57,1.18-3.19,2.28-4.79,3.42-.92.66-1.46,1.45-.72,2.72ZM42.2,51.83c3.3-1.94,6.41-3.81,9.56-5.61,1.45-.83,1.63-1.06,1.06-2.63-.23-.63-.68-1.18-1.04-1.78-.47.24-.8.36-1.09.56-3.36,2.25-6.06,5.17-8.38,8.45-.18.26-.08.72-.1,1.01ZM74.94,88.28c-.02.35-.04.67-.05.98-.02,5.49-.03,10.98-.04,16.47,0,1.38-.02,2.77.07,4.14.02.28.5.52.76.78.23-.26.5-.49.68-.78.09-.16.02-.42.02-.63,0-6.66,0-13.32.01-19.98,0-.34,0-.67,0-.99h-1.46ZM47.54,81.17c-.8,1.28-1.76,2.79-2.67,4.32-.1.17-.02.55.11.73,1.64,2.29,3.72,4.09,6.43,5.66.09-.69.36-1.31.18-1.72-1.3-3.03-2.7-6.02-4.05-8.99ZM96.45,40.39c2.21-.05,3.6-1.33,3.75-2.86.14-1.49-1.29-2.97-2.89-3.09-2.42-.18-3.66,1.26-3.82,3.14-.1,1.16,1.58,2.73,2.96,2.81ZM101.27,43.58c-.57,1.25-1.12,2.44-1.61,3.51,2.92,1.71,5.8,3.4,8.73,5.12.57-.57.7-1.31-.09-2.08-2.12-2.07-4.23-4.15-6.36-6.21-.16-.16-.42-.22-.67-.34ZM57.96,100.78c-.11.07-.21.13-.32.2.12.63.03,1.49.41,1.84,2.04,1.87,4.24,3.51,7.21,3.55.62,0,1.26.07,1.87.18,1.86.33,3.66.18,5.46-.52-5.21-.84-10.29-1.98-14.62-5.24ZM42.05,100.29c-.41.16-.68.49-.15,1.07,1.16,1.26,2.25,2.6,3.5,3.77,1.82,1.7,3.75,3.29,5.63,4.92.5-.35.79-.55,1.07-.76.88-.66.88-1.11.01-1.8-.19-.15-.39-.3-.6-.44-3.1-2.21-6.2-4.42-9.46-6.75ZM54.73,34.41c-1.67-.01-3.15,1.2-3.24,2.65-.07,1.21,1.9,2.87,3.45,2.9,1.33.03,2.86-1.34,2.9-2.6.05-1.56-1.41-2.94-3.11-2.95ZM75.05,31.7c1.83.29,3.47-1.49,3.4-2.73-.08-1.58-1.34-2.7-3.2-2.7-1.49,0-2.88,1.56-2.84,3.2.03,1.34,1.07,2.23,2.63,2.24ZM97.31,110.39c-1.68-.02-3.02,1.16-3.05,2.7-.03,1.37,1.33,2.61,2.89,2.63,1.64.02,3.06-1.22,3.1-2.7.04-1.53-1.17-2.6-2.94-2.63ZM57.48,113.32c.02-1.46-1.42-2.89-2.92-2.92-1.74-.03-3.11,1.1-3.13,2.6-.03,1.42,1.33,2.67,2.96,2.71,1.68.04,3.08-1.04,3.1-2.38ZM42.91,54.13c.03.09.07.18.1.28.91.07,1.83.07,2.72.23,1.86.34,3.27-.1,4.2-1.89.49-.93,1.25-1.71,1.87-2.58.36-.5.68-1.03,1.02-1.55-.08-.1-.16-.2-.25-.3-3.54,1.4-6.67,3.48-9.66,5.81ZM57.91,75.91c0-1.85-1.02-2.93-2.84-2.94-1.49,0-2.78,1.04-2.9,2.74-.09,1.39,1.31,2.57,2.94,2.56,1.67,0,2.79-.95,2.79-2.36ZM78.33,50.26c-.25.83-.24,1.28.76,1.48,2.84.57,5.01,2.21,6.69,4.53,1.08,1.49,1.08,1.52,2.9,1,.53-.15,1.01-.48,1.51-.73-.38-.43-.74-.87-1.13-1.3-.12-.13-.28-.21-.43-.31-3.19-2.01-6.6-3.53-10.3-4.68ZM95.99,78.32c1.64.02,2.96-1.09,2.99-2.52.04-1.56-1.2-2.81-2.8-2.82-1.68-.02-2.82,1.2-2.83,3.02,0,1.28,1.15,2.31,2.64,2.32ZM38.11,51.24c-1.5-.03-2.62.99-2.64,2.4-.02,1.59,1.21,2.78,2.93,2.83,1.51.05,2.76-.95,2.76-2.18,0-1.84-1.18-3.02-3.05-3.05ZM78.37,56.43c-.31,1.9-.17,2.1,1.04,2.49,1.22.4,2.44.87,3.58,1.47,1.17.63,2.23,1.46,3.36,2.21.28-.21.54-.39.78-.59.27-.21.53-.43.84-.69-2.57-2.99-5.8-4.48-9.59-4.9ZM62.51,116.13c-.01.09-.03.18-.04.27,2.98.86,5.96,1.73,8.71,2.52.82-.86,1.65-1.41,1.97-2.16.3-.71.06-1.64.06-2.61-3.55,1.59-7.08,2.03-10.7,1.98ZM78.45,101.22c1.11-.28,2.17-.51,3.21-.8,2.82-.8,5.37-2.15,7.73-3.86.25-.18.36-.62.42-.95.02-.13-.25-.43-.43-.47-.98-.23-1.98-.4-2.9-.58-.65.89-1.19,1.75-1.84,2.51-1.47,1.71-3.45,2.52-5.6,2.95-.61.12-.89.34-.58,1.2ZM112.28,56.37c1.73,0,2.93-1.1,2.94-2.67,0-1.58-1.05-2.56-2.72-2.55-1.57.01-2.69,1.18-2.69,2.8,0,1.65.67,2.49,2.47,2.41ZM90.43,73.66c-.38-3.34-1.8-6.07-4.27-8.46-.63.57-1.24,1.12-1.61,1.45,1.02,1.85,2.09,3.47,2.83,5.23.76,1.81.61,1.87,2.54,1.82.14,0,.27-.03.5-.05ZM88.03,78.7c-.67,2.27-1.52,4.31-3.11,5.97-.44.46-.42.8.14,1.13.24.14.44.36.61.58.46.55.86.45,1.31-.02,2.05-2.12,3.09-4.67,3.35-7.66h-2.31ZM87.84,116.49c-3.38-.62-6.62-1.22-9.82-1.81-1,1.95.85,2.88,1.79,4.33,2.67-.84,5.34-1.67,8.03-2.52ZM60.62,78.69c.26,3.36,1.5,6.02,3.98,8.16.64-.6,1.25-1.17,1.89-1.77-1.67-1.75-2.81-3.67-3.53-5.86-.07-.22-.4-.47-.64-.51-.51-.08-1.04-.02-1.7-.02ZM64.77,65.21c-2.36,2.33-3.69,5.11-4.12,8.45.62,0,1.15.04,1.67-.02.23-.02.58-.19.64-.36.8-2.44,1.97-4.66,3.77-6.55-.3-.25-.51-.44-.73-.61-.39-.3-.79-.59-1.22-.91ZM38.67,98.78c1.53.04,2.62-.83,2.64-2.11.02-1.45-1.16-2.67-2.66-2.73-1.67-.07-2.92.99-2.94,2.49-.02,1.35,1.18,2.3,2.97,2.35ZM119.83,72.94c-1.97-.09-2.63,1.24-2.73,2.65-.08,1.23,1.04,2.25,2.31,2.26,1.85.02,3.2-.97,3.21-2.36,0-1.47-1.16-2.54-2.79-2.55ZM115.11,75.29h-11.81c-.1,1.56-.1,1.58,1.24,1.59,3.39.04,6.79.06,10.19.08.13,0,.25-.07.39-.11v-1.56ZM31.14,77.84c1.65-.01,2.68-.93,2.66-2.37-.02-1.52-1.14-2.53-2.81-2.53-1.5,0-2.64,1.11-2.66,2.59-.02,1.22,1.32,2.33,2.8,2.31ZM54.15,53.13c.36-.06.59-.15.81-.14.98.03,1.25-.42,1.19-1.37-.17-2.64-.29-5.28-.35-7.93-.03-1.2-.81-.91-1.47-.91-.85,0-.67.58-.65,1.12.13,2.78.23,5.55.36,8.33.01.29.07.59.11.9ZM73,56.23c-3.74,1.08-7.24,2.24-9.91,5.24.65.43,1.19.79,1.75,1.17,2.31-2.34,5.11-3.6,8.15-4.44v-1.97ZM86.37,89.52c-1.9,1.64-3.9,2.86-6.36,3.32-1.88.35-2.02.69-1.63,2.3,3.51-.74,6.98-1.53,9.69-4.21-.57-.48-1.11-.93-1.7-1.41ZM97.07,52.97v-10.12h-1.7c-.12,3.42-.24,6.75-.36,10.12h2.06ZM57.71,105.56c.17,3.55,9.59,8.2,13.04,6.62-4.74-1.48-9.12-3.39-13.04-6.62ZM77.94,36.22c3.13-.46,6.13-.9,9.14-1.34-2.32-.92-4.74-1.65-7.18-2.29-.3-.08-.77.23-1.08.48-.36.29-.62.69-.97,1.1.03.63.06,1.39.09,2.05ZM47.17,75.32h-11.41v1.51h11.41v-1.51ZM63.19,90.84c2.82,2.53,6.13,3.64,9.74,4.31v-1.71c-3.05-.54-5.8-1.79-8.14-3.86-.55.43-1.04.82-1.6,1.26ZM93.45,52.94c.32-1.49.03-2.79-1.56-3.69-.91-.51-1.65-1.33-2.5-1.95-.26-.19-.66-.32-.96-.28-1.12.16-2.24.41-3.21.6,2.72,1.76,5.47,3.53,8.23,5.31ZM107.49,54.73c.02-.18.05-.37.07-.55-2.57-1.55-5.14-3.11-7.83-4.74.6,1.8,1.1,3.35,1.65,4.89.07.18.41.37.62.38,1.83.03,3.66.02,5.49.02ZM92.75,72.77c.22-.77.58-1.55.66-2.37.29-2.8-1.56-4.65-3.15-6.56-.15-.18-1.01.07-1.43.3-.45.25-.27.66.03,1.04.44.55.91,1.11,1.21,1.73.91,1.87,1.74,3.78,2.68,5.85ZM72.95,91.31c.02-.29.04-.46.04-.63.01-.73.28-1.63-.05-2.15-.29-.47-1.31-.42-1.89-.79-1.64-1.07-3-.86-4.17.7-.02.03-.02.06-.07.2,1.84,1.28,3.79,2.32,6.13,2.68ZM58.3,72.71c.11-.03.22-.05.33-.08.51-3.11,2.02-5.72,4.2-8.22-.81-.11-1.13-1.46-2.04-.44-1.78,1.99-3.42,4.08-3.06,6.99.07.6.38,1.16.57,1.74ZM56.82,89.87c-.11-2.73-.22-5.42-.33-8.11h-1.63v8.11h1.95ZM92.38,80.47c-1.15,2.45-1.61,5.28-4.07,7.03.7.52,1.19.88,1.87,1.39.99-1.51,1.99-2.87,2.8-4.33.78-1.4.8-2.84-.6-4.09ZM37.59,60.57c-.11-.04-.22-.08-.33-.12-.21.39-.48.75-.64,1.16-.98,2.64-1.99,5.27-2.88,7.94-.66,1.97-.56,2.07.92,3.24.96-4.01,1.94-8.12,2.93-12.22ZM94.37,81.42v8.47h1.81c0-2.44.02-4.8,0-7.17-.01-1.08-.52-1.42-1.8-1.3ZM73.03,60.7c-2.37.34-4.26,1.42-6.03,2.8.73.61,1.41,1.17,2.09,1.74.69-.31,1.37-.68,2.1-.94,1.85-.65,1.86-.63,1.85-2.63,0-.28,0-.56,0-.96ZM84.31,88.52c-.35-.29-.66-.48-.88-.74-.81-.96-1.65-1.07-2.75-.4-.7.42-1.55.59-2.4.9v2.97c2.25-.36,4.15-1.35,6.02-2.72ZM84.34,63.37c-2.13-1.05-3.99-1.97-6.03-2.99v3.46c1.07.43,2.04.83,3.02,1.2.22.08.55.13.72.02.69-.46,1.35-.98,2.29-1.69ZM56.2,101.56h-2.07c-.19,2.46-.38,4.84-.57,7.29.72.06,1.3.11,1.98.17.22-2.48.44-4.93.66-7.46ZM95.02,101.15c.21,2.7.42,5.24.62,7.84.63-.16,1.61.32,1.61-.83,0-2.4-.09-4.79-.14-7.29-.8.11-1.42.19-2.1.29ZM34.57,79.64c-.28.54-.95,1.21-.85,1.73.62,3.29,1.51,6.52,3.29,9.43.2.32.44.62.66.93.06-.04.11-.07.17-.11-1.08-3.96-2.15-7.92-3.26-11.98ZM58.78,80.64c-1.1,1.01-1.33,1.79-.94,3.09.6,1.98,1.87,3.51,3.33,5.02.51-.38.98-.72,1.52-1.12-2.02-1.96-3.37-4.19-3.91-6.98ZM78.38,48.18c-.09.11-.18.22-.28.33.25.21.48.54.77.62,3.83,1.08,7.43,2.67,10.85,4.68.47.28.99.45,1.49.68-3.62-3.51-7.93-5.54-12.84-6.3ZM44.29,99.13c2.48,1.86,4.9,3.38,7.95,4.38-.98-1.45-1.78-2.66-2.62-3.85-.16-.23-.46-.5-.71-.51-1.47-.05-2.94-.02-4.63-.02ZM108.55,100.13c-1.55,1.11-2.95,2.25-4.48,3.18-1.55.94-3.22,1.68-4.84,2.51,3.77-.75,7.67-1.25,9.86-5.07-.17-.2-.38-.44-.54-.62ZM94.46,64.52v6.45c.59-.08,1.04-.15,1.63-.23v-6.22h-1.63ZM56.64,70.86v-6.19c-.59.13-1.24.27-1.78.39v5.55c.59.08,1.07.15,1.78.25ZM75.14,121.27c1.1.02,2.2-.92,2.21-1.87.01-.8-.88-1.62-1.78-1.64-1-.02-2.1.94-2.13,1.85-.02.9.74,1.65,1.7,1.66ZM53.08,66.94c-1.79,2.63-2.89,5.68-2.54,6.95.66-.63,1.35-1.22,1.97-1.89.27-.29.53-.7.55-1.07.07-1.3.03-2.6.03-3.99ZM78.25,46.01c2.89,1.31,5.38-.61,8.13-.67-1.34-1.19-6.22-.77-8.13.67ZM100.21,102.24c.04.06.09.11.13.17,2.03-1.09,4.06-2.17,6.09-3.26-1.41-.18-2.72-.2-4.02-.16-.29,0-.7.19-.83.42-.5.92-.92,1.88-1.37,2.83ZM93.62,101.31c-3.16,2.01-6.11,3.88-8.95,5.69,1.93.69,3.32-.73,4.79-1.76,1.51-1.05,2.9-2.27,4.16-3.93ZM50.48,78.4c.18,2.52,1.46,5.98,2.71,7.36-.43-2.18.62-4.53-1.58-6.1-.15-.11-.18-.39-.31-.54-.2-.22-.44-.39-.82-.72ZM78.14,103.38l.37.26c4.36-1.02,8.61-2.3,12.11-5.27-3.71,2.19-7.56,3.96-11.95,4.29-.19.01-.35.48-.53.73ZM44.31,73.64c-.55-1.42-1.06-2.74-1.57-4.07-.1,0-.19,0-.29,0-.5,1.31-1,2.62-1.55,4.07h3.4ZM62.38,113.51c-.96-.86-1.83-1.62-2.68-2.39-.6-.54-1.18-1.11-1.8-1.63-.13-.1-.41-.01-.62-.01,1.45,1.13,2.09,2.52,2.14,4.27,1.04-.08,1.97-.16,2.97-.24ZM42.57,82.51c.64-1.37,1.22-2.6,1.79-3.81h-3.15c.47,1.32.91,2.53,1.37,3.81ZM98.2,67.52c-.57,3.27-.01,4.64,2.26,5.5l-2.26-5.5ZM88.27,76.97h3.17c-.06-.64-.12-1.21-.17-1.75h-2.99v1.75ZM73.17,43.86c-.05-.76.03-1.45-.22-1.99-.08-.18-1.02-.08-1.52.05-.89.23-1.74.59-2.83.97,1.58.33,2.91.61,4.57.96ZM97.77,84.9c.79-.61,1.85-3.63,1.94-5.31-2.48,1-1.57,3.35-1.94,5.31ZM62.54,76.98v-1.65h-2.6v1.65h2.6ZM69.03,109.03s-.03.1-.05.15c1.3.44,2.6.87,4,1.34v-2.02c-1.36.18-2.66.35-3.95.53ZM81.83,42.92c0-.09,0-.18,0-.27-1.13-.34-2.26-.67-3.59-1.07-.05.75-.09,1.38-.14,2.09,1.37-.27,2.54-.51,3.72-.75ZM76.34,116.09v-2.45c-.55.07-1.02.12-1.45.17-.4,2.38-.37,2.44,1.45,2.28ZM78.18,110.36c1.36-.53,2.54-1,3.73-1.46-.02-.05-.04-.11-.07-.16-1.21-.09-2.41-.18-3.66-.27v1.9ZM72.97,53.05c-1.24.68-2.29,1.25-3.33,1.82l.1.28c1.07-.17,2.14-.35,3.23-.52v-1.57ZM83.57,104.95c-.04-.1-.08-.19-.13-.29-1.76.48-3.51.96-5.27,1.43.04.15.09.3.13.45,1.75-.53,3.51-1.06,5.26-1.6ZM106.71,73.73c.57-.07.93-.12,1.32-.17v-2.57c-.07-.02-.14-.04-.21-.06-.35.89-.7,1.78-1.11,2.8ZM78.21,54.82h2.41c-.92-.57-1.59-1-2.41-1.5v1.5ZM110.34,73.56c-.44-.91-.84-1.73-1.27-2.6v2.6h1.27ZM49.49,76.99c1.48.03,1.06-.79,1.09-1.29,0-.15-.3-.32-.46-.49-.19.53-.38,1.07-.63,1.78ZM78.36,98.1c.83-.37,1.6-.71,2.36-1.04q-2.34.16-2.36,1.04ZM47.05,78.73c-.1-.04-.19-.09-.29-.13l-1.71,3.39c.77-.89,1.34-1.89,1.91-2.89.06-.11.06-.24.09-.37ZM72.9,97.97c.04-.17.08-.35.13-.52-.91-.19-1.82-.38-2.73-.57-.03.1-.05.2-.08.3.89.27,1.79.53,2.68.8ZM90.34,59.22c-.38-.3-.63-.6-.74-.56-.31.14-.57.41-.85.63.18.21.41.61.53.58.31-.07.58-.34,1.05-.65ZM62.28,59.53c-.28-.98-.84-.73-1.47-.48.2.35.37.64.56.98.32-.17.61-.33.91-.5Z"/>
  </g>
</svg>